<svg width="259" height="29" viewBox="0 0 259 29" fill="none" xmlns="http://www.w3.org/2000/svg">
<path d="M4.58005 23.0989C6.2255 23.5417 7.93811 23.7631 9.71789 23.7631C11.7999 23.7631 13.5797 23.4565 15.0572 22.8434C16.518 22.1792 17.5758 21.3105 18.3313 20.2376C19.0701 19.1475 19.4395 17.9383 19.4395 16.6098C19.4395 15.077 19.0365 13.8507 18.2306 12.931C17.4246 12.0624 16.4676 11.3981 15.3594 10.9894C14.2849 10.5806 12.908 10.1889 11.229 9.8142C9.71789 9.50763 8.6601 9.20106 8.00527 8.89449C7.35045 8.58792 6.99785 8.17916 6.99785 7.56602C6.99785 6.98695 7.28329 6.51006 7.85416 6.13537C8.40824 5.72661 9.31492 5.57332 10.5742 5.57332C12.4883 5.57332 14.5031 6.13537 16.6187 7.25945L18.5328 2.60982C17.475 1.99668 16.2157 1.48573 14.8557 1.17916C13.4453 0.872592 12.0349 0.668213 10.5742 0.668213C8.45861 0.668213 6.67884 0.991814 5.23487 1.63902C3.77411 2.25215 2.71632 3.17186 1.96076 4.24485C1.20519 5.31785 0.902968 6.54412 0.902968 7.87259C0.902968 9.45653 1.25556 10.6828 2.0615 11.5514C2.83385 12.4711 3.7909 13.1354 4.93264 13.5441C6.00722 13.9529 7.38403 14.3446 9.06306 14.7193C10.5742 15.0259 11.632 15.3835 12.2868 15.6901C12.992 15.9967 13.3446 16.4565 13.3446 17.0697C13.3446 18.2959 12.1525 18.9091 9.76826 18.9091C8.50898 18.9091 7.24971 18.7047 5.94006 18.2959C4.63042 17.8872 3.52226 17.3762 2.56521 16.712L0.5 21.3105C1.55779 22.077 2.86743 22.639 4.58005 23.0989Z" fill="#3B368D"/>
<path d="M39.6382 1.12793H33.5433L23.8721 23.3031H30.1684L31.8811 19.0111L33.6944 14.3615L36.5152 7.25932L39.336 14.3615L41.1493 19.0111L42.8619 23.3031H49.3094L39.6382 1.12793Z" fill="#3B368D"/>
<path d="M55.3036 1.12793V23.3031H71.9764V18.3469H61.4992V1.12793H55.3036Z" fill="#3B368D"/>
<path d="M96.0033 1.12793H78.6254V5.98194H96.0033V1.12793ZM96.0033 9.71187H78.6254V14.4126H96.0033V9.71187ZM78.6254 18.4491V23.3031H96.0033V18.4491H78.6254Z" fill="#3B368D"/>
<path d="M106.43 23.0989C108.109 23.5417 109.839 23.7631 111.618 23.7631C113.7 23.7631 115.463 23.4565 116.907 22.8434C118.368 22.1792 119.476 21.3105 120.232 20.2376C120.937 19.1475 121.289 17.9383 121.289 16.6098C121.289 15.077 120.887 13.8507 120.081 12.931C119.275 12.0624 118.318 11.3981 117.26 10.9894C116.152 10.5806 114.775 10.1889 113.129 9.8142C111.618 9.50763 110.56 9.20106 109.906 8.89449C109.2 8.58792 108.898 8.17916 108.898 7.56602C108.898 6.98695 109.184 6.51006 109.755 6.13537C110.309 5.72661 111.165 5.57332 112.424 5.57332C114.372 5.57332 116.387 6.13537 118.469 7.25945L120.383 2.60982C119.325 1.99668 118.066 1.48573 116.706 1.17916C115.295 0.872592 113.885 0.668213 112.475 0.668213C110.325 0.668213 108.529 0.991814 107.085 1.63902C105.675 2.25215 104.566 3.17186 103.861 4.24485C103.106 5.31785 102.753 6.54412 102.753 7.87259C102.753 9.45653 103.156 10.6828 103.962 11.5514C104.734 12.4711 105.675 13.1354 106.783 13.5441C107.891 13.9529 109.268 14.3446 110.913 14.7193C112.424 15.0259 113.482 15.3835 114.187 15.6901C114.842 15.9967 115.195 16.4565 115.195 17.0697C115.195 18.2959 114.003 18.9091 111.618 18.9091C110.409 18.9091 109.1 18.7047 107.84 18.2959C106.531 17.8872 105.372 17.3762 104.415 16.712L102.4 21.3105C103.408 22.077 104.768 22.639 106.43 23.0989Z" fill="#3B368D"/>
<path d="M153.779 9.60968L148.087 19.8798L148.137 23.3031H153.829L153.779 9.60968ZM128.392 23.3542H134.134V20.2885L128.392 9.91625V23.3542ZM148.691 1.12793L141.186 13.9527L133.479 1.12793H128.392L134.134 11.909L139.725 21.1571H142.445L148.087 11.6024L153.628 1.12793H148.691Z" fill="#3B368D"/>
<path d="M175.539 1.12793H169.444L159.773 23.3031H166.069L167.782 19.0111L169.595 14.3615L172.416 7.25932L175.237 14.3615L177.05 19.0111L178.763 23.3031H185.21L175.539 1.12793Z" fill="#3B368D"/>
<path d="M205.611 11.7558V17.8361C204.502 18.347 203.445 18.5514 202.236 18.5514C201.027 18.5514 199.969 18.2959 199.012 17.785C198.105 17.223 197.35 16.4565 196.846 15.5368C196.292 14.566 196.04 13.4419 196.04 12.2157C196.04 10.3251 196.594 8.7412 197.753 7.61712C198.911 6.49303 200.422 5.87989 202.286 5.87989C204.351 5.87989 206.114 6.69741 207.625 8.33245L211.554 4.7558C210.446 3.42734 209.136 2.40544 207.474 1.74121C205.862 1.02588 204.032 0.668213 201.984 0.668213C199.633 0.668213 197.534 1.16213 195.687 2.14996C193.841 3.1378 192.397 4.50033 191.356 6.23756C190.298 8.02588 189.794 10.0186 189.794 12.2157C189.794 14.4638 190.298 16.4565 191.356 18.1938C192.397 19.965 193.841 21.3446 195.687 22.3324C197.501 23.2862 199.566 23.7631 201.883 23.7631C203.495 23.7631 205.107 23.5587 206.769 23.0478C208.381 22.5709 209.808 21.8726 211.051 20.9529V11.7558H205.611Z" fill="#3B368D"/>
<path d="M219.261 1.12793V23.3031H225.457V1.12793H219.261Z" fill="#3B368D"/>
<path fill-rule="evenodd" clip-rule="evenodd" d="M255.78 28.004C254.722 28.4638 253.614 28.6682 252.355 28.6682C251.146 28.6682 250.054 28.5149 249.081 28.2084C248.073 27.9018 247.116 27.3908 246.109 26.6755C245.101 25.9091 243.993 24.8872 242.784 23.5587C240.87 23.2522 239.158 22.5879 237.697 21.5149C236.219 20.459 235.061 19.1305 234.221 17.5295C233.415 15.9286 233.012 14.1573 233.012 12.2157C233.012 10.0186 233.516 8.07697 234.574 6.28865C235.632 4.55142 237.092 3.17186 238.906 2.14996C240.769 1.17916 242.885 0.668213 245.202 0.668213C247.519 0.668213 249.584 1.17916 251.398 2.14996C253.261 3.17186 254.672 4.55142 255.78 6.28865C256.821 8.05994 257.341 10.0356 257.341 12.2157C257.341 14.7193 256.687 16.9675 255.327 18.858C253.983 20.7655 252.17 22.1281 249.887 22.9456C250.323 23.4225 250.743 23.7461 251.146 23.9164C251.549 24.1208 251.985 24.223 252.456 24.223C253.715 24.223 254.773 23.712 255.78 22.639L258.5 25.9091C257.744 26.8288 256.838 27.493 255.78 28.004ZM242.18 17.785C243.053 18.2959 244.06 18.5514 245.202 18.5514C246.277 18.5514 247.267 18.2959 248.174 17.785C249.081 17.2741 249.786 16.5076 250.34 15.5368C250.793 14.6171 251.095 13.493 251.095 12.2157C251.095 10.9894 250.793 9.86529 250.34 8.89449C249.786 7.97478 249.081 7.20836 248.174 6.64632C247.267 6.13537 246.26 5.87989 245.202 5.87989C244.044 5.87989 243.087 6.13537 242.18 6.64632C241.273 7.20836 240.568 7.97478 240.064 8.89449C239.51 9.86529 239.258 10.9894 239.258 12.2157C239.258 13.476 239.527 14.5831 240.064 15.5368C240.568 16.5076 241.273 17.2741 242.18 17.785Z" fill="#3B368D"/>
</svg>
